My.Week.With.Marilyn.2011.BRRip.XviD.Ac3.Feel-Free

Genre:Biography | Drama
Language:English
IMDb:http://www.imdb.com/title/tt1655420/
Source:720p.BluRay.x264.DTS-HDChina Thanks!
Encoder:Tony

Format : AVI
Format/Info : Audio Video Interleave
File size : 1 017 MiB
Duration : 1h 38mn
Overall bit rate : 1 437 Kbps


Video
ID : 0
Format : MPEG-4 Visual
Format profile : Advanced Simple@L5
Format settings, BVOP : 1
Format settings, QPel : No
Format settings, GMC : No warppoints
Format settings, Matrix : Default (H.263)
Codec ID : XVID
Codec ID/Hint : XviD
Duration : 1h 38mn
Bit rate : 980 Kbps
Width : 640 pixels
Height : 272 pixels
Display aspect ratio : 2.35:1
Frame rate : 23.976 fps
Color space : YUV
Chroma subsampling : 4:2:0
Bit depth : 8 bits
Scan type : Progressive
Compression mode : Lossy
Bits/(Pixel*Frame) : 0.235
Stream size : 693 MiB (68%)
Writing library : XviD 1.2.1 (UTC 2008-12-04)

Audio
ID : 1
Format : AC-3
Format/Info : Audio Coding 3
Mode extension : CM (complete main)
Codec ID : 2000
Duration : 1h 38mn
Bit rate mode : Constant
Bit rate : 448 Kbps
Channel(s) : 6 channels
Channel positions : Front: L C R, Side: L R, LFE
Sampling rate : 48.0 KHz
Bit depth : 16 bits
Compression mode : Lossy
Stream size : 317 MiB (31%)
Alignment : Aligned on interleaves
Interleave, duration : 42 ms (1.00 video frame)
Interleave, preload duration : 512 ms


Plot:
Colin Clark, an employee of Sir Laurence Olivier's, documents the tense 
interaction between Olivier and Marilyn Monroe during production of The Prince 
and the Showgirl.


Poster:

 
http://i.imgur.com/RO8H1.jpg


Screens:

 
http://i.imgur.com/aDWCZ.png

 
http://i.imgur.com/EtuJE.png

 
http://i.imgur.com/E9AxZ.png


ENJOY!